<?xml version="1.0" encoding="UTF-8"?>
<!-- Generator: Adobe Illustrator 23.0.1, SVG Export Plug-In . SVG Version: 6.00 Build 0)  -->
<svg xmlns="http://www.w3.org/2000/svg" xmlns:xlink="http://www.w3.org/1999/xlink" version="1.1" id="Layer_1" x="0px" y="0px" viewBox="0 0 20 20" style="enable-background:new 0 0 20 20;" xml:space="preserve">
<style type="text/css">
	.st0{fill-rule:evenodd;clip-rule:evenodd;fill:#282B3E;}
</style>
<path class="st0" d="M5,2.5C6.5,1.5,8.2,1,10,1c2.4,0,4.7,1,6.4,2.6C18,5.3,19,7.6,19,10c0,1.8-0.5,3.5-1.5,5s-2.4,2.6-4,3.3  c-1.6,0.7-3.5,0.9-5.2,0.5c-1.7-0.3-3.3-1.2-4.6-2.5s-2.1-2.9-2.5-4.6C0.8,10,1,8.2,1.7,6.6C2.4,4.9,3.5,3.5,5,2.5z M9.2,6.6h1.7  v2.6h2.6v1.7h-2.6v2.6H9.2v-2.6H6.6V9.2h2.6V6.6z" style="fill: #000000;"/>
</svg>
