<?xml version="1.0" encoding="UTF-8"?>
<!-- Generator: Adobe Illustrator 23.0.1, SVG Export Plug-In . SVG Version: 6.00 Build 0)  -->
<svg xmlns="http://www.w3.org/2000/svg" xmlns:xlink="http://www.w3.org/1999/xlink" version="1.1" id="Layer_1" x="0px" y="0px" viewBox="0 0 20 20" style="enable-background:new 0 0 20 20;" xml:space="preserve">
<style type="text/css">
	.st0{fill-rule:evenodd;clip-rule:evenodd;fill:#282B3E;}
</style>
<path class="st0" d="M10,19c1.8,0,3.5-0.5,5-1.5s2.6-2.4,3.3-4c0.7-1.6,0.9-3.5,0.5-5.2c-0.3-1.7-1.2-3.3-2.5-4.6s-2.9-2.1-4.6-2.5  C10,0.8,8.2,1,6.6,1.7C4.9,2.4,3.5,3.5,2.5,5S1,8.2,1,10c0,2.4,1,4.7,2.6,6.4C5.3,18,7.6,19,10,19z M10.7,6.4l1.2,1.2l-2.5,2.6  l2.6,2.5l-1.2,1.2L7,10.1L10.7,6.4z" style="fill: #282b3e;"/>
</svg>
