<?xml version="1.0" encoding="utf-8"?>
<!-- Generator: Adobe Illustrator 23.0.1, SVG Export Plug-In . SVG Version: 6.00 Build 0)  -->
<svg version="1.1" id="Layer_1" xmlns="http://www.w3.org/2000/svg" xmlns:xlink="http://www.w3.org/1999/xlink" x="0px" y="0px"
	 viewBox="0 0 20 20" style="enable-background:new 0 0 20 20;" xml:space="preserve">
<style type="text/css">
	.st0{fill-rule:evenodd;clip-rule:evenodd;fill:#282B3E;}
</style>
<path class="st0" d="M10,1C8.2,1,6.5,1.5,5,2.5s-2.6,2.4-3.3,4C1,8.2,0.8,10,1.2,11.8c0.3,1.7,1.2,3.3,2.5,4.6s2.9,2.1,4.6,2.5
	c1.7,0.3,3.6,0.2,5.2-0.5s3.1-1.8,4-3.3c1-1.5,1.5-3.2,1.5-5c0-2.4-1-4.7-2.6-6.4C14.7,2,12.4,1,10,1z M6.6,9.2h6.9v1.7H6.6V9.2z"/>
</svg>
