<svg xmlns="http://www.w3.org/2000/svg" viewBox="0 0 60 60" style="fill: #282B3E"><path d="M51.593 13.808a29.316 29.316 0 0 0-4.808-4.925A26.762 26.762 0 0 0 29.977 3a26.808 26.808 0 0 0-21.1 10.184A27.133 27.133 0 0 0 3 30.014V57h27.027a26.987 26.987 0 0 0 21.566-43.192zM30.026 52H8V30.012a22.115 22.115 0 0 1 4.788-13.718 21.958 21.958 0 0 1 30.927-3.465A24.731 24.731 0 0 1 47.6 16.81 21.988 21.988 0 0 1 30.026 52z"/><path d="M18.339 22.214h21.675v5H18.339zM18.339 32.814h21.675v5H18.339z"/></svg>