<svg width="30" height="30" viewBox="0 0 30 30" fill="none" xmlns="http://www.w3.org/2000/svg">
<path d="M9 4.50012V26.9997H25.7998V8.61822L21.7487 4.50012H9Z" fill="#505050"/>
<path fill-rule="evenodd" clip-rule="evenodd" d="M9 4.50037V27H25.7998V8.61846L21.7487 4.50037H9Z" stroke="#505050" stroke-width="1.5" stroke-linecap="round" stroke-linejoin="round"/>
<mask id="mask0_22_17524" style="mask-type:luminance" maskUnits="userSpaceOnUse" x="9" y="4" width="17" height="23">
<path fill-rule="evenodd" clip-rule="evenodd" d="M9 4.50012V26.9997H25.7998V8.61822L21.7487 4.50012H9Z" fill="white"/>
</mask>
<g mask="url(#mask0_22_17524)">
<path d="M9 4.50012V26.9997H25.7998V8.61822L21.7487 4.50012H9Z" fill="url(#paint0_linear_22_17524)"/>
</g>
<path d="M21.7793 4.53265V8.51709H25.6995L21.7793 4.53265Z" fill="white"/>
<path fill-rule="evenodd" clip-rule="evenodd" d="M21.7793 4.53265V8.51709H25.6995L21.7793 4.53265Z" stroke="#505050" stroke-width="1.5" stroke-linecap="round" stroke-linejoin="round"/>
<path d="M21.7793 4.53265V8.51709H25.6995L21.7793 4.53265Z" fill="#F3F3F3"/>
<path d="M3 22.4999H21V13.4999H3V22.4999Z" fill="#1D70B7"/>
<path d="M6.38493 20.605C6.15993 20.605 5.93493 20.54 5.70993 20.41C5.48493 20.275 5.29493 20.0575 5.13993 19.7575C4.98993 19.4525 4.91493 19.0575 4.91493 18.5725C4.91493 18.0975 4.98743 17.7025 5.13243 17.3875C5.27743 17.0725 5.46243 16.8425 5.68743 16.6975C5.91243 16.5525 6.14243 16.48 6.37743 16.48C6.55743 16.48 6.72743 16.5275 6.88743 16.6225C7.05243 16.7125 7.21243 16.835 7.36743 16.99V14.98L7.92243 14.6575V20.5H7.39743V20.08C7.23743 20.255 7.07993 20.3875 6.92493 20.4775C6.76993 20.5625 6.58993 20.605 6.38493 20.605ZM6.49743 20.125C6.67243 20.125 6.83743 20.0575 6.99243 19.9225C7.15243 19.7875 7.27743 19.6325 7.36743 19.4575V17.545C7.26243 17.37 7.13743 17.2275 6.99243 17.1175C6.84743 17.0025 6.68243 16.945 6.49743 16.945C6.14743 16.945 5.88743 17.1075 5.71743 17.4325C5.55243 17.7525 5.46993 18.135 5.46993 18.58C5.46993 18.915 5.51743 19.2 5.61243 19.435C5.71243 19.665 5.83993 19.8375 5.99493 19.9525C6.15493 20.0675 6.32243 20.125 6.49743 20.125ZM10.452 20.605C9.97698 20.605 9.59448 20.4275 9.30448 20.0725C9.01948 19.7175 8.87698 19.2075 8.87698 18.5425C8.87698 17.8775 9.01948 17.3675 9.30448 17.0125C9.59448 16.6575 9.97698 16.48 10.452 16.48C10.932 16.48 11.312 16.6575 11.592 17.0125C11.877 17.3675 12.0195 17.8775 12.0195 18.5425C12.0195 19.2075 11.877 19.7175 11.592 20.0725C11.312 20.4275 10.932 20.605 10.452 20.605ZM10.452 20.1775C10.827 20.1775 11.087 20.015 11.232 19.69C11.382 19.365 11.457 18.9825 11.457 18.5425C11.457 18.1025 11.382 17.72 11.232 17.395C11.087 17.07 10.827 16.9075 10.452 16.9075C10.072 16.9075 9.80948 17.07 9.66448 17.395C9.52448 17.715 9.45448 18.0975 9.45448 18.5425C9.45448 18.9875 9.52448 19.3725 9.66448 19.6975C9.80948 20.0175 10.072 20.1775 10.452 20.1775ZM14.342 20.6125C13.857 20.6125 13.467 20.435 13.172 20.08C12.877 19.725 12.7295 19.2125 12.7295 18.5425C12.7295 18.1025 12.797 17.7275 12.932 17.4175C13.067 17.1075 13.2545 16.875 13.4945 16.72C13.7395 16.56 14.022 16.48 14.342 16.48C14.667 16.48 14.932 16.5575 15.137 16.7125C15.342 16.8675 15.507 17.0875 15.632 17.3725L15.182 17.6575C15.107 17.4425 14.9995 17.265 14.8595 17.125C14.7195 16.98 14.5395 16.9075 14.3195 16.9075C13.9495 16.9075 13.687 17.07 13.532 17.395C13.382 17.72 13.307 18.1025 13.307 18.5425C13.307 19.0175 13.387 19.41 13.547 19.72C13.707 20.03 13.972 20.185 14.342 20.185C14.577 20.185 14.7645 20.11 14.9045 19.96C15.0495 19.805 15.167 19.605 15.257 19.36L15.7145 19.63C15.5895 19.925 15.4045 20.1625 15.1595 20.3425C14.9195 20.5225 14.647 20.6125 14.342 20.6125ZM18.0122 18.4225L19.3097 20.5H18.6722L17.6747 18.8425H17.6597L16.7372 20.5H16.1597L17.3597 18.4525L16.1822 16.585H16.8122L17.6822 18.055H17.6972L18.5222 16.585H19.0997L18.0122 18.4225Z" fill="white"/>
<defs>
<linearGradient id="paint0_linear_22_17524" x1="16.5373" y1="36.039" x2="36.2192" y2="22.693" gradientUnits="userSpaceOnUse">
<stop stop-color="#FDFDFD"/>
<stop offset="1" stop-color="#F2F2F2"/>
</linearGradient>
</defs>
</svg>
