<?xml version="1.0" encoding="UTF-8"?>
<svg xmlns="http://www.w3.org/2000/svg" viewBox="0 0 60 60"><path d="M33.386 33.382a4.8 4.8 0 0 1-3.418 1.418 4.836 4.836 0 1 1 3.421-1.417zm-3.424-13.235a9.824 9.824 0 1 0 0 19.647 9.822 9.822 0 0 0 6.946-16.772 9.888 9.888 0 0 0-6.953-2.875z" style="fill: #ffffff;"/><path d="M29.951 46.385a16.409 16.409 0 1 1 .072 0zM57 32.5v-5h-5.757A21.169 21.169 0 0 0 46.8 16.735l4.06-4.061-3.534-3.531-4.055 4.057A21.229 21.229 0 0 0 32.5 8.724V3h-5v5.716a21.3 21.3 0 0 0-10.783 4.472l-4.043-4.045-3.531 3.531 4.044 4.045A21.29 21.29 0 0 0 8.709 27.5H3v5h5.718A21.171 21.171 0 0 0 13.2 43.268l-4.057 4.058 3.531 3.532 4.07-4.07A21.168 21.168 0 0 0 27.5 51.227V57h5v-5.782a21.5 21.5 0 0 0 10.74-4.45l4.089 4.09 3.531-3.532-4.089-4.086a21.184 21.184 0 0 0 4.463-10.74z" style="fill: #ffffff;"/></svg>
