<svg xmlns="http://www.w3.org/2000/svg" viewBox="0 0 60 60"><path d="M19.153 36.973L36.81 19.317l3.546 3.545L22.699 40.52z"/><path d="M27.544 48.985a11.684 11.684 0 0 1-15.678-17.329l6.841-6.892-3.559-3.532-6.7 6.759a16.7 16.7 0 0 0 10.492 28.99c.27.013.538.019.807.019a16.651 16.651 0 0 0 11.217-4.342l7.786-7.784-3.55-3.545zM52.629 8.465a16.7 16.7 0 0 0-23.588-1.124l-7.786 7.784L24.8 18.67l7.656-7.656a11.684 11.684 0 0 1 19.489 9.239 11.605 11.605 0 0 1-3.811 8.089l-6.841 6.893 3.559 3.531 6.705-6.758a16.7 16.7 0 0 0 1.072-23.543z"/></svg>