<?xml version="1.0" encoding="UTF-8"?>
<svg xmlns="http://www.w3.org/2000/svg" viewBox="0 0 60 60"><path d="M11.79 18.559a6.29 6.29 0 1 0-5 0v20.488h7.316V53.5h5V34.047H11.79zm-2.5-4.479a1.29 1.29 0 1 1 1.289-1.29 1.292 1.292 0 0 1-1.289 1.29zM50.711 6.546a6.288 6.288 0 0 0-2.5 12.058v15.488h-7.317v19.454h5V39.092h7.317V18.6a6.288 6.288 0 0 0-2.5-12.058zm0 7.579A1.29 1.29 0 1 1 52 12.835a1.292 1.292 0 0 1-1.289 1.29z" style="fill: #ffffff;"/><path d="M15.382 25.306h29.254v5H15.382z" style="fill: #ffffff;"/></svg>
