<svg width="30" height="30" viewBox="0 0 30 30" fill="none" xmlns="http://www.w3.org/2000/svg">
<path d="M9 4.50012V26.9997H25.7998V8.61822L21.7487 4.50012H9Z" fill="#505050"/>
<path fill-rule="evenodd" clip-rule="evenodd" d="M9 4.50037V27H25.7998V8.61846L21.7487 4.50037H9Z" stroke="#505050" stroke-width="1.5" stroke-linecap="round" stroke-linejoin="round"/>
<mask id="mask0_22_17332" style="mask-type:luminance" maskUnits="userSpaceOnUse" x="9" y="4" width="17" height="23">
<path fill-rule="evenodd" clip-rule="evenodd" d="M9 4.50012V26.9997H25.7998V8.61822L21.7487 4.50012H9Z" fill="white"/>
</mask>
<g mask="url(#mask0_22_17332)">
<path d="M9 4.50012V26.9997H25.7998V8.61822L21.7487 4.50012H9Z" fill="url(#paint0_linear_22_17332)"/>
</g>
<path d="M21.7793 4.53265V8.51709H25.6995L21.7793 4.53265Z" fill="white"/>
<path fill-rule="evenodd" clip-rule="evenodd" d="M21.7793 4.53265V8.51709H25.6995L21.7793 4.53265Z" stroke="#505050" stroke-width="1.5" stroke-linecap="round" stroke-linejoin="round"/>
<path d="M21.7793 4.53265V8.51709H25.6995L21.7793 4.53265Z" fill="#F3F3F3"/>
<path d="M3 22.4999H21V13.4999H3V22.4999Z" fill="#E21E00"/>
<path d="M8.0978 16.585V16.99C8.2528 16.83 8.4078 16.705 8.5628 16.615C8.7178 16.525 8.8928 16.48 9.0878 16.48C9.3228 16.48 9.5503 16.5525 9.7703 16.6975C9.9953 16.8425 10.1803 17.0725 10.3253 17.3875C10.4703 17.6975 10.5428 18.0925 10.5428 18.5725C10.5428 19.0575 10.4653 19.4525 10.3103 19.7575C10.1603 20.0575 9.9728 20.275 9.7478 20.41C9.5278 20.54 9.3028 20.605 9.0728 20.605C8.7078 20.605 8.3828 20.4325 8.0978 20.0875V21.76H7.5428V16.585H8.0978ZM8.9603 20.1625C9.1303 20.1625 9.2928 20.1125 9.4478 20.0125C9.6028 19.9125 9.7303 19.7475 9.8303 19.5175C9.9353 19.2825 9.9878 18.9775 9.9878 18.6025C9.9878 18.1625 9.9003 17.78 9.7253 17.455C9.5553 17.13 9.3003 16.9675 8.9603 16.9675C8.7853 16.9675 8.6228 17.0225 8.4728 17.1325C8.3228 17.2425 8.1978 17.3825 8.0978 17.5525V19.4875C8.1878 19.6675 8.3103 19.825 8.4653 19.96C8.6253 20.095 8.7903 20.1625 8.9603 20.1625ZM12.7424 20.605C12.5174 20.605 12.2924 20.54 12.0674 20.41C11.8424 20.275 11.6524 20.0575 11.4974 19.7575C11.3474 19.4525 11.2724 19.0575 11.2724 18.5725C11.2724 18.0975 11.3449 17.7025 11.4899 17.3875C11.6349 17.0725 11.8199 16.8425 12.0449 16.6975C12.2699 16.5525 12.4999 16.48 12.7349 16.48C12.9149 16.48 13.0849 16.5275 13.2449 16.6225C13.4099 16.7125 13.5699 16.835 13.7249 16.99V14.98L14.2799 14.6575V20.5H13.7549V20.08C13.5949 20.255 13.4374 20.3875 13.2824 20.4775C13.1274 20.5625 12.9474 20.605 12.7424 20.605ZM12.8549 20.125C13.0299 20.125 13.1949 20.0575 13.3499 19.9225C13.5099 19.7875 13.6349 19.6325 13.7249 19.4575V17.545C13.6199 17.37 13.4949 17.2275 13.3499 17.1175C13.2049 17.0025 13.0399 16.945 12.8549 16.945C12.5049 16.945 12.2449 17.1075 12.0749 17.4325C11.9099 17.7525 11.8274 18.135 11.8274 18.58C11.8274 18.915 11.8749 19.2 11.9699 19.435C12.0699 19.665 12.1974 19.8375 12.3524 19.9525C12.5124 20.0675 12.6799 20.125 12.8549 20.125ZM15.0469 17.05V16.585H15.6319V15.9025C15.6319 15.5625 15.7144 15.3 15.8794 15.115C16.0494 14.925 16.2944 14.83 16.6144 14.83C16.7344 14.83 16.8519 14.8425 16.9669 14.8675C17.0869 14.8925 17.1819 14.9225 17.2519 14.9575L17.1019 15.415C16.9719 15.345 16.8269 15.31 16.6669 15.31C16.3469 15.31 16.1869 15.5 16.1869 15.88V16.585H17.0869L17.0044 17.05H16.1869V20.5H15.6319V17.05H15.0469Z" fill="white"/>
<defs>
<linearGradient id="paint0_linear_22_17332" x1="16.5373" y1="36.039" x2="36.2192" y2="22.693" gradientUnits="userSpaceOnUse">
<stop stop-color="#FDFDFD"/>
<stop offset="1" stop-color="#F2F2F2"/>
</linearGradient>
</defs>
</svg>
