<svg width="30" height="30" viewBox="0 0 30 30" fill="none" xmlns="http://www.w3.org/2000/svg">
<path d="M9 4.50012V26.9997H25.7998V8.61822L21.7487 4.50012H9Z" fill="#505050"/>
<path fill-rule="evenodd" clip-rule="evenodd" d="M9 4.50037V27H25.7998V8.61846L21.7487 4.50037H9Z" stroke="#505050" stroke-width="1.5" stroke-linecap="round" stroke-linejoin="round"/>
<mask id="mask0_22_17428" style="mask-type:luminance" maskUnits="userSpaceOnUse" x="9" y="4" width="17" height="23">
<path fill-rule="evenodd" clip-rule="evenodd" d="M9 4.50012V26.9997H25.7998V8.61822L21.7487 4.50012H9Z" fill="white"/>
</mask>
<g mask="url(#mask0_22_17428)">
<path d="M9 4.50012V26.9997H25.7998V8.61822L21.7487 4.50012H9Z" fill="url(#paint0_linear_22_17428)"/>
</g>
<path d="M21.7793 4.53265V8.51709H25.6995L21.7793 4.53265Z" fill="white"/>
<path fill-rule="evenodd" clip-rule="evenodd" d="M21.7793 4.53265V8.51709H25.6995L21.7793 4.53265Z" stroke="#505050" stroke-width="1.5" stroke-linecap="round" stroke-linejoin="round"/>
<path d="M21.7793 4.53265V8.51709H25.6995L21.7793 4.53265Z" fill="#F3F3F3"/>
<path d="M3 22.4999H21V13.4999H3V22.4999Z" fill="#4BA451"/>
<path d="M7.9853 18.4225L9.2828 20.5H8.6453L7.6478 18.8425H7.6328L6.7103 20.5H6.1328L7.3328 18.4525L6.1553 16.585H6.7853L7.6553 18.055H7.6703L8.4953 16.585H9.0728L7.9853 18.4225ZM10.0257 14.98L10.5807 14.6575V20.5H10.0257V14.98ZM13.1708 18.4225L14.4683 20.5H13.8308L12.8333 18.8425H12.8183L11.8958 20.5H11.3183L12.5183 18.4525L11.3408 16.585H11.9708L12.8408 18.055H12.8558L13.6808 16.585H14.2583L13.1708 18.4225ZM16.3513 20.605C16.0663 20.605 15.8063 20.5475 15.5713 20.4325C15.3363 20.3125 15.1363 20.135 14.9713 19.9L15.3313 19.54C15.4513 19.725 15.6013 19.875 15.7813 19.99C15.9613 20.105 16.1588 20.1625 16.3738 20.1625C16.5988 20.1625 16.7863 20.105 16.9363 19.99C17.0913 19.87 17.1688 19.705 17.1688 19.495C17.1688 19.35 17.1263 19.23 17.0413 19.135C16.9613 19.04 16.8588 18.965 16.7338 18.91C16.6138 18.855 16.4488 18.795 16.2388 18.73C15.9838 18.65 15.7763 18.5725 15.6163 18.4975C15.4613 18.4225 15.3288 18.3125 15.2188 18.1675C15.1088 18.0225 15.0538 17.8325 15.0538 17.5975C15.0538 17.2525 15.1738 16.98 15.4138 16.78C15.6538 16.58 15.9563 16.48 16.3213 16.48C16.5613 16.48 16.7838 16.5275 16.9888 16.6225C17.1988 16.7175 17.3738 16.8525 17.5138 17.0275L17.2213 17.41C16.9513 17.08 16.6463 16.915 16.3063 16.915C16.0963 16.915 15.9213 16.97 15.7813 17.08C15.6413 17.19 15.5713 17.3425 15.5713 17.5375C15.5713 17.6825 15.6113 17.8025 15.6913 17.8975C15.7763 17.9875 15.8788 18.06 15.9988 18.115C16.1238 18.17 16.2913 18.23 16.5013 18.295C16.7613 18.38 16.9688 18.46 17.1238 18.535C17.2838 18.61 17.4188 18.72 17.5288 18.865C17.6388 19.01 17.6938 19.2 17.6938 19.435C17.6938 19.79 17.5663 20.075 17.3113 20.29C17.0613 20.5 16.7413 20.605 16.3513 20.605Z" fill="white"/>
<defs>
<linearGradient id="paint0_linear_22_17428" x1="16.5373" y1="36.039" x2="36.2192" y2="22.693" gradientUnits="userSpaceOnUse">
<stop stop-color="#FDFDFD"/>
<stop offset="1" stop-color="#F2F2F2"/>
</linearGradient>
</defs>
</svg>
